<svg width="59" height="38" viewBox="0 0 59 38" fill="none" xmlns="http://www.w3.org/2000/svg">
<path d="M43.5524 22.0072C43.5524 22.6091 42.4374 23.3489 41.5306 23.3489H40.7049C40.7058 19.6654 40.7058 15.5358 40.7049 14.8028C40.7045 14.7811 40.7108 14.7596 40.7234 14.7394C40.736 14.7193 40.7546 14.701 40.7782 14.6855C40.8019 14.67 40.83 14.6576 40.861 14.6492C40.892 14.6407 40.9253 14.6362 40.959 14.6361H43.2971C43.4375 14.6361 43.5526 14.712 43.5526 14.8041V22.0072H43.5524ZM39.7425 24.6415C39.7425 25.0225 39.453 25.6608 37.5141 25.6608C33.7566 25.6608 31.45 23.7647 31.45 22.4049C31.45 22.4049 31.4458 18.0081 31.4458 14.8042C31.4455 14.7825 31.4518 14.7609 31.4644 14.7407C31.477 14.7206 31.4957 14.7022 31.5193 14.6867C31.543 14.6712 31.5712 14.6589 31.6023 14.6504C31.6334 14.642 31.6668 14.6376 31.7005 14.6375H34.0414C34.1819 14.6375 34.2973 14.7129 34.2973 14.8056V21.8703C34.2973 23.0375 35.7317 23.9843 37.4999 23.9843H39.7437L39.7425 24.6415ZM43.4745 14.0025H40.7812C40.2086 14.0025 39.7422 14.3105 39.7422 14.6884V23.3497H37.4982C36.2602 23.3497 35.2568 22.6872 35.2568 21.8701V14.6884C35.2568 14.3096 34.7911 14.0022 34.2173 14.0022H31.5228C30.949 14.0022 30.4834 14.3096 30.4825 14.6884C30.4811 17.8199 30.4867 22.4051 30.4867 22.4051C30.4871 24.8152 34.5794 26.2951 37.5133 26.2951C39.4813 26.2951 40.7036 25.6601 40.7036 24.6372V23.9842H41.5302C42.98 23.9842 44.5136 22.9682 44.5136 22.0072V14.6884C44.515 14.3096 44.0494 14.0022 43.4747 14.0022V14.0025H43.4745ZM27.5566 23.1957C27.5569 23.2174 27.5506 23.2389 27.538 23.2591C27.5254 23.2792 27.5067 23.2975 27.483 23.313C27.4594 23.3284 27.4312 23.3407 27.4001 23.3492C27.3691 23.3576 27.3357 23.362 27.302 23.3621H24.9612C24.8188 23.3621 24.7046 23.286 24.7052 23.1944V16.1296C24.7052 14.9624 23.2705 14.0156 21.5027 14.0156H19.2587V13.3583C19.2587 12.9781 19.5482 12.339 21.4871 12.339C25.2447 12.339 27.5519 14.235 27.5519 15.5949C27.5519 15.5949 27.5561 20.0131 27.5561 23.1956H27.5566V23.1957ZM15.7029 23.3636C15.5605 23.3609 15.4466 23.2869 15.4482 23.1952V15.9934C15.4482 15.3915 16.5634 14.6506 17.4699 14.6506H18.2963C18.295 19.9256 18.295 22.6248 18.2963 23.1949C18.2969 23.2389 18.2705 23.2814 18.2227 23.3129C18.1749 23.3444 18.1096 23.3624 18.0412 23.363H15.7033L15.7029 23.3636ZM28.5127 15.5949C28.5132 13.1846 24.4207 11.7047 21.4872 11.7047C19.5187 11.7047 18.2963 12.3396 18.2963 13.3626V14.0156H17.4702C16.0199 14.0156 14.4863 15.0316 14.4863 15.9927V23.3114C14.4863 23.6902 14.9519 23.9976 15.5255 23.9976H18.2183C18.235 23.9976 18.2494 23.9947 18.2661 23.9947C18.8165 23.9776 19.2573 23.6791 19.2573 23.3114V14.6501H21.5017C22.7392 14.6501 23.7431 15.3126 23.7431 16.1297V23.3115C23.7431 23.6902 24.2088 23.9977 24.7822 23.9977H27.4772C28.051 23.9977 28.5164 23.6911 28.5164 23.3115C28.5184 20.1215 28.5131 15.5948 28.5131 15.5948L28.5127 15.5949Z" fill="white"/>
</svg>
